<svg width="200" height="70" viewBox="0 0 200 70" fill="none" xmlns="http://www.w3.org/2000/svg">
<path d="M34.5402 5.27192V0.727163H42.7207V20.9968H34.5402V16.3611C31.0862 11.1801 26.3596 8.54415 20.3605 8.54415C16.6338 8.54415 13.907 9.27131 11.9073 10.8165C9.99847 12.2709 8.99862 14.3614 8.99862 17.1792C8.99862 19.8152 9.90758 21.9057 11.7255 23.2692C13.6343 24.6326 16.452 25.8142 20.2696 26.8141L28.0866 28.9047C33.0858 30.1772 36.9034 31.9951 39.6303 34.1766C42.2663 36.3581 44.0842 38.7214 44.9022 41.1755C45.7203 43.6297 46.0839 46.3566 46.0839 49.3561C46.0839 55.4461 44.1751 60.2635 40.3575 63.8084C36.6308 67.3533 31.5406 69.0804 25.178 69.0804C19.088 69.0804 13.6343 66.8989 8.63504 62.445V67.9896H0.272685V43.6297H8.63504V49.5379C12.6344 56.9004 17.8155 60.5362 24.269 60.5362C27.9957 60.5362 30.9044 59.5364 32.995 57.6276C35.0855 55.7188 36.0854 52.9919 36.0854 49.447C36.0854 44.6295 32.7223 41.3573 25.996 39.4485L17.6337 37.0852C11.6346 35.3582 7.18072 33.0859 4.36297 30.0863C1.45432 27.1777 0 23.3601 0 18.5426C0 12.6344 1.72701 8.08968 5.27192 4.81745C8.72594 1.63612 13.5434 0 19.6334 0C24.9962 0 29.9045 1.72701 34.5402 5.27192Z" fill="#5B316D"/>
<path d="M110.999 8.45326V1.09074H119.543V23.0874H110.999C109.09 18.8153 105.999 15.3613 101.727 12.8162C97.5461 10.1803 93.0922 8.90773 88.4566 8.90773C83.8209 8.90773 79.7306 9.99847 76.0948 12.18C72.5499 14.3614 69.7322 17.361 67.7325 21.1786C65.7328 24.9962 64.7329 29.3591 64.7329 34.1766C64.7329 39.2667 65.7328 43.8115 67.9143 47.72C70.0049 51.6285 72.9135 54.7189 76.6402 56.9004C80.3669 59.0819 84.639 60.1726 89.4564 60.1726C93.0922 60.1726 96.4554 59.5364 99.5458 58.1729C102.727 56.8095 105.272 54.9916 107.363 52.5374C109.453 50.0833 110.726 47.2655 111.18 44.0842H98.9095V35.6309H123.269V37.8124C123.269 44.1751 121.815 49.7197 118.906 54.4462C115.998 59.1728 111.998 62.8086 106.908 65.3536C101.818 67.8078 96.0918 69.0804 89.7291 69.0804C82.4575 69.0804 76.0948 67.626 70.6411 64.7174C65.1874 61.8087 61.0062 57.7184 58.0976 52.5374C55.1889 47.2655 53.7346 41.1755 53.7346 34.2675C53.7346 27.6321 55.1889 21.724 58.0976 16.5429C61.0062 11.3619 65.0056 7.27162 70.0958 4.36297C75.2768 1.45433 81.0941 0 87.5476 0C96.728 0 104.545 2.81776 110.999 8.45326Z" fill="#5B316D"/>
<path d="M148.247 9.45318L165.335 54.9008L181.878 9.45318H174.152V1.09082H199.693V9.45318H191.694L169.607 68.7168H160.336L137.884 9.45318H129.613V1.09082H155.973V9.45318H148.247Z" fill="#5B316D"/>
</svg>
