<svg width="198" height="52" viewBox="0 0 198 52" fill="none" xmlns="http://www.w3.org/2000/svg">
<path d="M20.4242 50.7853H0V48.8856H6.3553V2.65777H0V0.913328H20.4242V2.65777H13.9144V48.8856H20.4242V50.7853ZM48.203 50.7213C47.449 50.7624 46.654 50.7853 45.8181 50.7853H27.2156V48.9586H32.5124V2.58927H27.2156V0.913328H46.2769H47.031C47.4172 0.913328 47.8124 0.922457 48.203 0.936157C50.4517 1.02292 52.7322 1.36999 55.0535 1.97735C56.3118 2.38378 57.443 2.86327 58.456 3.4204C59.46 3.98209 60.6093 4.93195 61.8949 6.2654C63.1805 7.61255 63.821 9.63099 63.821 12.3162C63.821 15.7137 62.7035 18.3715 60.4548 20.3032C58.2153 22.2257 55.2988 23.518 51.7237 24.1756V24.4816C52.5777 24.5866 53.3863 24.7465 54.145 24.9702C54.8991 25.2031 55.7077 25.4863 56.5662 25.8151C57.4157 26.1393 58.2652 26.5411 59.0965 27.0252C59.9279 27.5093 60.8319 28.144 61.8222 28.9295C62.8034 29.7149 63.6847 30.8292 64.4706 32.2722C65.2474 33.7199 65.6381 35.3775 65.6381 37.2498C65.6381 38.5742 65.4882 39.7524 65.1838 40.789C64.884 41.8256 64.2889 43.0312 63.4076 44.3966C62.5263 45.7666 61.109 46.9585 59.1692 47.9722C57.2249 48.9906 55.3806 49.6619 53.6135 49.9907C51.8463 50.3195 50.4199 50.5341 49.3387 50.63C48.9753 50.6711 48.5983 50.6985 48.203 50.7213ZM140.075 0.986393C150.892 1.59832 156.293 5.9229 156.293 13.9875C156.293 18.0427 155.012 21.1525 152.441 23.2989C149.865 25.4543 146.853 26.8151 143.401 27.3723C142.333 27.5412 141.225 27.6828 140.075 27.8107C137.482 28.071 134.674 28.2034 131.64 28.2034V48.8856H137.541V50.7853H118.784V48.8856H124.38V2.65777H118.784V0.913328H136.101H137.304C138.267 0.913328 139.19 0.93616 140.075 0.986393M140.075 25.9247C140.521 25.8653 140.952 25.7785 141.361 25.6598C142.133 25.4315 143.124 25.0022 144.309 24.3674C145.495 23.7281 146.49 22.5865 147.298 20.947C148.098 19.2985 148.507 17.0289 148.507 14.1428C148.507 10.7452 147.975 8.21534 146.921 6.54396C145.858 4.86801 144.455 3.79943 142.719 3.34733C141.965 3.1464 141.084 2.9957 140.075 2.87697C138.749 2.73084 137.195 2.65777 135.419 2.65777H133.384H131.64V26.3037H132.625H133.457C135.569 26.3037 137.336 26.1986 138.749 26.0023C139.212 26.0023 139.648 25.9749 140.075 25.9247M93.4215 2.28752e-06H96.0654C99.8995 0.456663 102.916 1.68508 105.105 3.69896C107.3 5.69913 108.912 7.47555 109.948 8.99623C110.979 10.5169 112.079 12.7454 113.242 15.6772C114.395 18.5861 114.981 22.0111 114.981 25.9247C114.981 27.4453 114.863 29.0162 114.636 30.6146C114.409 32.2083 113.932 34.1902 113.196 36.5192C112.469 38.8573 111.184 41.3096 109.344 43.844C107.504 46.3876 105.242 48.3741 102.571 49.8217C99.8995 51.2739 96.8513 52 93.4215 52C89.0378 52 85.5989 51.0638 83.0959 49.187C80.6019 47.3147 78.7984 45.593 77.6945 44.0176C76.4271 42.3964 75.4641 40.757 74.7781 39.113C74.0967 37.469 73.647 36.2132 73.4198 35.3501C73.1927 34.487 72.9746 33.6559 72.7747 32.8431C72.5749 32.0302 72.425 31.2448 72.3205 30.4867C72.2205 29.7241 72.1478 28.966 72.0979 28.2034C72.0434 27.4453 72.0161 26.7101 72.0161 26.0023C72.0161 21.6914 72.8747 17.5084 74.5918 13.4532C76.3045 9.40722 78.8121 6.14666 82.1146 3.68983C85.4172 1.22842 89.1377 2.28752e-06 93.2671 2.28752e-06H93.4215ZM93.4215 50.0044C96.556 49.8674 99.0681 48.9449 100.976 47.2507C103.039 45.4012 104.488 43.0038 105.292 40.0629C106.1 37.1265 106.509 33.9573 106.509 30.5643V26.0754C106.509 19.9972 106.182 15.6087 105.528 12.9281C104.865 10.2383 104.124 8.25187 103.316 6.95952C102.512 5.6626 101.462 4.55291 100.186 3.60762C98.8819 2.67147 97.4555 2.10064 95.8928 1.89971L93.5396 1.67138H93.4215C91.6044 1.68508 89.8873 2.04128 88.3018 2.73997C86.6801 3.4478 85.2037 4.69905 83.8681 6.50286C82.5235 8.29754 81.6649 10.5808 81.2878 13.3436C80.9063 16.1064 80.6519 18.3486 80.5338 20.0657C80.3975 21.7919 80.343 23.7738 80.343 26.0023V28.8884C80.343 29.9022 80.3793 31.0119 80.4474 32.1946C80.5337 33.3865 80.6882 34.9574 80.9426 36.9074C81.2015 38.8573 81.7648 40.862 82.6598 42.917C83.5365 44.9674 84.6041 46.4744 85.8351 47.438C87.0798 48.4061 88.2155 49.0774 89.2467 49.4564C90.287 49.8354 91.3909 50.0272 92.5539 50.0272C92.8446 50.0272 93.1353 50.0181 93.4215 50.0044M48.203 2.73084C47.2718 2.63037 46.2588 2.58927 45.1412 2.58927H42.4156H41.2118H40.0761V23.7235H42.4974H44.4598C45.8635 23.7235 47.1128 23.6642 48.203 23.5546C49.3842 23.4313 50.379 23.2486 51.1922 23.002C52.7549 22.518 54.0041 21.4813 54.9354 19.8785C55.8667 18.2847 56.33 15.9146 56.33 12.7774C56.33 9.88215 55.8848 7.68104 54.9763 6.16036C53.9632 4.68991 52.6822 3.72636 51.1195 3.26513C50.27 3.02767 49.3024 2.84044 48.203 2.73084M48.203 25.7466C46.9084 25.605 45.432 25.5456 43.783 25.5456H40.0761V48.9586H43.2515H44.5371H45.7454C46.6267 48.9586 47.449 48.9358 48.203 48.8856C49.8839 48.7668 51.2739 48.5294 52.3642 48.164C53.9542 47.6298 55.1762 46.5429 56.0347 44.8944C56.8933 43.2412 57.3203 40.7524 57.3203 37.4051C57.3203 33.8112 56.7979 31.1854 55.7667 29.5368C54.7355 27.8883 53.2864 26.8151 51.4148 26.3037C50.5062 26.0571 49.4387 25.8699 48.203 25.7466M198 36.4918L197.241 50.7853H159.282V48.8856H164.72V2.65777H159.282V0.913328H196.038V12.9281H194.597C193.993 8.87293 192.703 6.16036 190.741 4.78581C188.874 3.37016 185.875 2.65777 181.742 2.65777H172.433V23.8697H173.651C176.018 23.8697 177.771 23.6687 178.907 23.2623C180.038 22.8605 180.956 22.0978 181.669 20.9836C182.373 19.8693 182.823 18.2208 183.027 16.0425H184.694V34.7428H183.027C182.823 32.2585 182.373 30.3954 181.669 29.1532C180.956 27.9111 179.852 27.0663 178.339 26.6096C176.981 26.1073 175.009 25.8516 172.433 25.8516V48.8856H182.877C186.003 48.8856 188.356 48.47 189.95 47.6298C191.536 46.7941 192.835 45.5154 193.839 43.7892C194.647 42.0676 195.433 39.6336 196.187 36.4918H198Z" fill="#706F6B"/>
</svg>
