<svg width="200" height="79" viewBox="0 0 200 79" fill="none" xmlns="http://www.w3.org/2000/svg">
<path d="M25.9551 69.9075C25.9551 71.0093 26.2 71.7439 26.5673 72.2336C26.9346 72.8458 27.7916 73.0906 29.3832 73.0906H41.014C43.4626 73.0906 45.9112 72.9682 48.2374 72.7234C50.5635 72.6009 52.7673 71.9888 55.0935 70.8869C57.2972 69.785 59.5009 68.1934 61.5822 65.8673C63.6635 63.6635 65.6224 60.6028 67.5813 56.5626H69.5402L65.9897 77.3757C62.5617 77.2533 58.0318 77.1308 52.5224 77.0084C46.8906 76.886 40.0346 76.886 31.9542 76.886C23.8738 76.886 17.1402 76.886 11.8757 77.0084C6.61121 77.1308 2.57103 77.2533 0 77.3757V74.9271L7.95794 73.5804C10.1617 73.3355 11.5084 72.8458 11.9981 72.1112C12.3654 71.4991 12.6103 70.2748 12.6103 68.5607V8.20281C12.6103 6.61122 12.3654 5.63178 11.8757 5.26449C11.2635 4.8972 10.529 4.52991 9.4271 4.28505L1.71402 2.69346V0C6.12149 0.24486 12.7327 0.367292 21.5477 0.367292C30.3626 0.367292 35.872 0.24486 37.9533 0V2.69346L29.1383 4.28505C28.0364 4.52991 27.1794 4.77477 26.6897 5.14206C26.2 5.50934 25.9551 6.61122 25.9551 8.20281V69.9075Z" fill="#449ED5"/>
<path d="M127.94 56.0729C131.245 52.1551 133.694 48.8495 135.163 46.0336C136.632 43.2177 137.367 40.8916 137.367 38.8103C137.367 36.4841 135.653 34.7701 132.225 33.7906V32.3215L155.731 30.7299V32.4439C153.772 33.056 152.058 33.9131 150.589 34.7701C149.12 35.7495 147.528 37.0962 145.692 38.9327C143.855 40.7691 141.652 43.2177 139.203 46.2785C136.755 49.3392 133.571 53.257 129.654 58.1542C132.959 62.6841 136.265 65.7448 139.815 67.3364C143.243 69.0504 146.182 69.9074 148.753 69.9074C151.446 69.9074 154.262 68.6831 157.2 66.2345C157.323 66.1121 157.445 66.1121 157.812 66.1121C158.18 65.9897 158.547 65.9897 158.914 66.1121C159.159 66.357 159.037 67.0916 158.547 68.4383C158.425 69.2953 157.935 70.3972 157.323 71.499C156.588 72.6009 155.609 73.7028 154.384 74.8046C153.038 75.9065 151.569 76.8859 149.732 77.6205C147.896 78.3551 145.692 78.7224 143.366 78.7224C140.305 78.7224 136.999 77.8654 133.571 76.1514C130.021 74.4373 126.103 71.2542 121.696 66.6018C119.614 68.8056 117.533 70.642 115.574 72.2336C113.615 73.8252 111.656 75.0495 109.575 76.0289C107.494 77.0084 105.29 77.743 102.964 78.1102C100.638 78.6 98.1891 78.8448 95.4957 78.8448C91.9452 78.8448 88.762 78.3551 85.9462 77.2532C83.1303 76.1514 80.6817 74.6822 78.7228 72.7233C76.6415 70.8869 75.1723 68.5607 74.0705 65.9897C72.9686 63.5411 72.3564 60.6028 72.3564 57.542C72.3564 52.2775 74.0705 47.7476 77.6209 44.1972C81.1714 40.6467 86.8032 37.586 94.6387 35.0149C92.6798 32.8112 91.0882 30.8523 90.1088 29.2607C89.0069 27.6691 88.1499 26.2 87.5377 24.8532C86.9256 23.6289 86.5583 22.4046 86.4359 21.3028C86.3134 20.2009 86.191 19.099 86.191 17.9972C86.191 14.0794 87.7826 10.7738 91.0882 8.08035C94.3938 5.50933 98.6789 4.1626 104.066 4.1626C109.085 4.1626 113.126 5.38689 116.186 7.83549C119.247 10.2841 120.716 13.4673 120.716 17.5075C120.716 21.0579 119.737 24.1187 117.655 26.4448C115.574 28.771 112.513 30.7299 108.473 32.3215L127.94 56.0729ZM106.27 30.2402C108.718 28.8934 110.432 27.4243 111.534 25.4654C112.513 23.6289 113.003 21.3028 113.003 18.4869C113.003 14.6916 112.146 11.8757 110.432 9.79437C108.596 7.83549 106.514 6.85605 103.943 6.73362C101.617 6.73362 99.7807 7.34578 98.3116 8.57007C96.8424 9.79437 96.1078 11.5084 96.1078 13.5897C96.1078 14.6916 96.2303 15.7934 96.4751 16.6504C96.5976 17.5075 97.0873 18.6093 97.8219 19.7112C98.434 20.9355 99.5359 22.4046 100.883 23.9962C102.229 25.5878 103.943 27.6691 106.27 30.2402ZM96.4751 37.2187C92.1901 39.0551 89.0069 41.5037 87.1705 44.442C85.2116 47.3803 84.2321 50.6859 84.2321 54.3588C84.2321 56.9299 84.7219 59.256 85.7013 61.3373C86.6807 63.4187 88.0275 65.1327 89.7415 66.4794C91.4555 67.9486 93.4144 69.0504 95.7406 69.785C97.9443 70.5196 100.27 70.8869 102.719 70.8869C106.147 70.8869 109.208 70.3972 111.901 69.2953C114.472 68.3159 117.166 66.7243 119.737 64.3981L96.4751 37.2187Z" fill="#449ED5"/>
<path d="M173.972 69.5402V7.71309C173.972 6.36636 173.728 5.38692 173.36 4.77477C172.871 4.16262 172.014 3.91776 170.912 3.79533L161.974 2.69346V0C162.831 0.24486 171.401 0.367292 187.685 0.367292C192.459 0.367292 196.377 0.24486 199.193 0V2.81589L191.725 3.79533C190.133 3.91776 188.909 4.16262 188.297 4.52991C187.562 4.8972 187.195 5.99907 187.195 7.71309V69.5402C187.195 71.0093 187.44 71.9888 187.807 72.3561C188.174 72.7234 189.031 72.9682 190.256 73.0906L199.193 73.7028V77.3757C197.601 77.2533 195.275 77.1308 192.215 77.0084C189.154 76.886 185.236 76.886 180.584 76.886C175.931 76.886 172.136 76.886 169.075 77.0084C165.892 77.1308 163.566 77.2533 161.974 77.3757V73.7028L169.565 73.2131C171.279 72.9682 172.503 72.7234 173.115 72.3561C173.728 72.1112 173.972 71.1318 173.972 69.5402Z" fill="#449ED5"/>
</svg>
