<svg width="290" height="46" viewBox="0 0 290 46" fill="none" xmlns="http://www.w3.org/2000/svg">
<path d="M93.2956 37.2789H76.2222L73.3971 45.4472H64.369L79.7842 2.51794H89.7949L105.21 45.4472H96.1207L93.2956 37.2789ZM90.9618 30.4004L84.7589 12.4672L78.5559 30.4004H90.9618Z" fill="#FFFFFF"/>
<path d="M131.127 45.4472L119.581 30.9533V45.4472H110.983V0H119.581V25.8558L131.004 11.4232H142.182L127.197 28.4967L142.305 45.4472H131.127Z" fill="#FFFFFF"/>
<path d="M156.86 18.486V34.9453C156.86 36.1122 157.167 36.9106 157.72 37.4019C158.273 37.9546 159.194 38.2003 160.484 38.2003H164.476V45.4473H159.071C151.824 45.4473 148.201 41.9466 148.201 34.8839V18.486H144.147V11.4233H148.201V3.0094H156.86V11.4233H164.476V18.486H156.86Z" fill="#FFFFFF"/>
<path d="M180.689 18.486V34.9453C180.689 36.1122 180.996 36.9106 181.549 37.4019C182.102 37.9546 183.023 38.2003 184.313 38.2003H188.305V45.4473H182.9C175.653 45.4473 172.03 41.9466 172.03 34.8839V18.486H167.976V11.4233H172.03V3.0094H180.689V11.4233H188.305V18.486H180.689Z" fill="#FFFFFF"/>
<path d="M209.616 46C206.361 46 203.413 45.263 200.772 43.789C198.131 42.3765 196.105 40.2884 194.631 37.6475C193.095 35.0067 192.358 31.9359 192.358 28.4352C192.358 24.9346 193.157 21.8638 194.692 19.223C196.166 16.5821 198.315 14.494 200.956 13.02C203.597 11.6075 206.607 10.8705 209.862 10.8705C213.117 10.8705 216.126 11.6075 218.767 13.02C221.408 14.494 223.557 16.5821 225.093 19.223C226.628 21.8638 227.365 24.9346 227.365 28.4352C227.365 31.9359 226.566 35.0067 225.031 37.6475C223.434 40.2884 221.285 42.3765 218.644 43.789C215.942 45.263 212.932 46 209.616 46ZM209.616 38.5073C211.151 38.5073 212.625 38.1388 214.038 37.3404C215.389 36.6034 216.494 35.498 217.293 33.9626C218.091 32.4272 218.521 30.5848 218.521 28.4352C218.521 25.1802 217.661 22.7236 216.003 20.9426C214.283 19.223 212.195 18.3631 209.739 18.3631C207.282 18.3631 205.255 19.223 203.597 20.9426C201.939 22.7236 201.079 25.1802 201.079 28.4352C201.079 31.6902 201.878 34.1468 203.536 35.8665C205.133 37.6475 207.159 38.5073 209.616 38.5073Z" fill="#FFFFFF"/>
<path d="M275.944 10.932C280.12 10.932 283.498 12.2217 286.077 14.7397C288.595 17.3192 289.885 20.8813 289.885 25.4874V45.4473H281.287V26.6543C281.287 24.0134 280.611 21.9253 279.26 20.5128C277.909 19.1002 276.067 18.4247 273.733 18.4247C271.399 18.4247 269.557 19.1002 268.206 20.5128C266.793 21.9253 266.118 24.0134 266.118 26.6543V45.4473H257.519V26.6543C257.519 24.0134 256.844 21.9253 255.493 20.5128C254.142 19.1002 252.299 18.4247 249.965 18.4247C247.57 18.4247 245.728 19.1002 244.377 20.5128C242.964 21.9253 242.288 24.0134 242.288 26.6543V45.4473H233.69V11.4233H242.288V15.5381C243.394 14.1256 244.806 12.9587 246.587 12.1603C248.307 11.3619 250.211 10.932 252.299 10.932C254.94 10.932 257.335 11.4847 259.423 12.5902C261.511 13.7571 263.108 15.3539 264.275 17.442C265.381 15.4767 266.977 13.8799 269.127 12.713C271.215 11.5462 273.487 10.932 275.944 10.932Z" fill="#FFFFFF"/>
<path fill-rule="evenodd" clip-rule="evenodd" d="M21.4621 2.53186L21.4559 45.4377H0L21.4621 2.53186Z" fill="#FFCC02"/>
<path fill-rule="evenodd" clip-rule="evenodd" d="M42.9181 2.51965H21.456V23.9817L42.9181 2.51965Z" fill="#FF9B67"/>
<path fill-rule="evenodd" clip-rule="evenodd" d="M42.9181 45.4377H21.456V23.9757L42.9181 45.4377Z" fill="#A61D1E"/>
</svg>
